<?xml version="1.0" encoding="UTF-8" standalone="no"?>
<!DOCTYPE svg PUBLIC "-//W3C//DTD SVG 1.1//EN" "http://www.w3.org/Graphics/SVG/1.1/DTD/svg11.dtd">
<svg width="100%" height="100%" viewBox="0 0 180 240" version="1.1" xmlns="http://www.w3.org/2000/svg" xmlns:xlink="http://www.w3.org/1999/xlink" xml:space="preserve" xmlns:serif="http://www.serif.com/" style="fill-rule:evenodd;clip-rule:evenodd;stroke-linejoin:round;stroke-miterlimit:2;">
    <path id="egg-left" d="M89.936,179.968L92.993,177.747L89.229,161.936L93.869,140.688L90.033,138.746L81.372,151.485L65.264,137.059L57.281,143.139L62.057,135.648L54.288,122.181L69.18,118.946L46.787,99.6L55.203,92.923L53.955,73.839L49.979,68.965L43.837,76.02L35.153,63.132L19.963,68.965C8.156,95.299 -0.188,122.662 0,150.034C0.031,162.141 1.203,171.966 3.287,179.968L4.44,184.714L14.313,187.793L27.531,178.813L38.075,186.638L48.934,179.968L54.613,190.358L69.592,179.968L81.792,188.562L89.936,179.968Z"/>
</svg>
