<?xml version="1.0" encoding="UTF-8" standalone="no"?>
<!DOCTYPE svg PUBLIC "-//W3C//DTD SVG 1.1//EN" "http://www.w3.org/Graphics/SVG/1.1/DTD/svg11.dtd">
		<svg
            class="code-logo"
			width="100%"
			height="100%"
			viewBox="0 0 800 300"
			style="fill-rule: evenodd; clip-rule: evenodd; stroke-linejoin: round; stroke-miterlimit: 2"
		>
			<g class="code-c" transform="matrix(0.955535,0,0,1.09291,-235.841,-202.92)">
				<path
					d="M396.825,231.721C396.825,231.721 282.537,299.412 282.609,299.467L396.825,367.923L396.825,414.331L246.41,319.915L246.41,280.085L396.825,185.669L396.825,231.721Z"
					style="fill-rule: nonzero"
				/>
			</g>
			<g class="code-o-left" transform="matrix(0.955535,0,0,1.09291,-92.1137,-202.92)">
				<path
					d="M396.825,231.721C396.825,231.721 282.537,299.412 282.609,299.467L396.825,367.923L396.825,414.331L246.41,319.915L246.41,280.085L396.825,185.669L396.825,231.721Z"
					style="fill-rule: nonzero"
				/>
			</g>
			<g class="code-o-right" transform="matrix(0.955535,0,0,1.09291,-186.803,-202.92)">
				<path
					d="M518.765,368.279C518.765,368.279 633.054,300.588 632.981,300.533L518.765,232.077L518.765,185.669L669.18,280.085L669.18,319.915L518.765,414.331L518.765,368.279Z"
				/>
			</g>
			<g class="code-d" transform="matrix(1,0,0,0.833026,0,-1.89828e-14)">
				<path
					d="M467.867,300.036L467.867,110.221L513.831,110.221L513.831,202.225C543.676,177.941 577.043,150.775 577.005,150.735L467.867,60.922L467.867,0.036L611.594,123.908L611.594,176.163L467.867,300.036Z"
				/>
			</g>
			<g class="code-e-main" transform="matrix(0.955535,0,0,1.09291,115.412,-202.92)">
				<path
					d="M518.765,368.279C518.765,368.279 633.054,300.588 632.981,300.533L518.765,232.077L518.765,185.669L669.18,280.085L669.18,319.915L518.765,414.331L518.765,368.279Z"
				/>
			</g>
			<g class="code-e-top" transform="matrix(0.824988,0,0,0.952004,181.062,-1.13687e-13)">
				<path d="M608.386,40.22L544.442,0L750.239,0L750.239,40.22L608.386,40.22Z" />
			</g>
			<g class="code-e-middle" transform="matrix(0.824988,0,0,0.972351,189.312,-1.53483)">
				<rect x="695.495" y="107.744" width="44.744" height="44.744" />
			</g>
			<g class="code-e-bottom" transform="matrix(0.824988,0,0,0.952004,181.062,-1.13687e-13)">
				<path d="M750.239,222.287L750.239,262.507L544.442,262.507L608.386,222.287L750.239,222.287Z" />
			</g>
		</svg>
